# xmcd
#
# Track frame offsets: 
#        150
#        13321
#        31901
#        55056
#        75753
#        97271
#        113508
#        132426
#        151472
#        168101
#        185009
#        198488
#        220194
#        235770
#
# Disc length: 3361 seconds
#
# Revision: 1
# Processed by: cddbd v1.5.2PL0 Copyright (c) Steve Scherf et al.
# Submitted via: ExactAudioCopyFreeDBPlugin 1.0
#
DISCID=b20d1f0e
DTITLE=群星 - DTSES美人吟2
DYEAR=2010
DGENRE=DTS ES
TTITLE0=独上西楼
TTITLE1=抹去泪水
TTITLE2=不了情
TTITLE3=茶山情歌
TTITLE4=春光美
TTITLE5=酒醉的探戈
TTITLE6=玫瑰玫瑰我爱你
TTITLE7=往事只能回味
TTITLE8=舞女泪
TTITLE9=小城故事
TTITLE10=又见炊烟
TTITLE11=月满西楼
TTITLE12=走过咖啡屋
TTITLE13=昨夜星辰
EXTD=
EXTT0=
EXTT1=
EXTT2=
EXTT3=
EXTT4=
EXTT5=
EXTT6=
EXTT7=
EXTT8=
EXTT9=
EXTT10=
EXTT11=
EXTT12=
EXTT13=
PLAYORDER=
